<mxfile host="app.diagrams.net" modified="2024-06-10T13:30:46.429Z" agent="Mozilla/5.0 (X11; Linux x86_64; rv:126.0) Gecko/20100101 Firefox/126.0" etag="qcWDNcFLD7ZEeYtDPhb8" version="24.5.1" type="github">
  <diagram id="fDH8wpeoyoEGUgoJEJ6Z" name="TrajectoryBase">
    <mxGraphModel dx="1101" dy="639" grid="0" gridSize="10" guides="1" tooltips="1" connect="1" arrows="1" fold="1" page="1" pageScale="1" pageWidth="827" pageHeight="1169" math="0" shadow="0">
      <root>
        <mxCell id="0" />
        <mxCell id="1" parent="0" />
        <mxCell id="OpDvex93K6ZjIfhI5G0n-1" value="TrajectoryBase" style="swimlane;fontStyle=1;align=center;verticalAlign=top;childLayout=stackLayout;horizontal=1;startSize=26;horizontalStack=0;resizeParent=1;resizeParentMax=0;resizeLast=0;collapsible=1;marginBottom=0;whiteSpace=wrap;html=1;" vertex="1" parent="1">
          <mxGeometry x="216" y="92" width="208" height="242" as="geometry" />
        </mxCell>
        <mxCell id="OpDvex93K6ZjIfhI5G0n-2" value="- _startTime: float" style="text;strokeColor=none;fillColor=none;align=left;verticalAlign=top;spacingLeft=4;spacingRight=4;overflow=hidden;rotatable=0;points=[[0,0.5],[1,0.5]];portConstraint=eastwest;whiteSpace=wrap;html=1;" vertex="1" parent="OpDvex93K6ZjIfhI5G0n-1">
          <mxGeometry y="26" width="208" height="26" as="geometry" />
        </mxCell>
        <mxCell id="OpDvex93K6ZjIfhI5G0n-5" value="- _endTime: float" style="text;strokeColor=none;fillColor=none;align=left;verticalAlign=top;spacingLeft=4;spacingRight=4;overflow=hidden;rotatable=0;points=[[0,0.5],[1,0.5]];portConstraint=eastwest;whiteSpace=wrap;html=1;" vertex="1" parent="OpDvex93K6ZjIfhI5G0n-1">
          <mxGeometry y="52" width="208" height="26" as="geometry" />
        </mxCell>
        <mxCell id="OpDvex93K6ZjIfhI5G0n-6" value="- _dimensions: int" style="text;strokeColor=none;fillColor=none;align=left;verticalAlign=top;spacingLeft=4;spacingRight=4;overflow=hidden;rotatable=0;points=[[0,0.5],[1,0.5]];portConstraint=eastwest;whiteSpace=wrap;html=1;" vertex="1" parent="OpDvex93K6ZjIfhI5G0n-1">
          <mxGeometry y="78" width="208" height="26" as="geometry" />
        </mxCell>
        <mxCell id="OpDvex93K6ZjIfhI5G0n-7" value="- _startPoint: Eigen::Vector" style="text;strokeColor=none;fillColor=none;align=left;verticalAlign=top;spacingLeft=4;spacingRight=4;overflow=hidden;rotatable=0;points=[[0,0.5],[1,0.5]];portConstraint=eastwest;whiteSpace=wrap;html=1;" vertex="1" parent="OpDvex93K6ZjIfhI5G0n-1">
          <mxGeometry y="104" width="208" height="26" as="geometry" />
        </mxCell>
        <mxCell id="OpDvex93K6ZjIfhI5G0n-8" value="- _endPoint: Eigen::Vector" style="text;strokeColor=none;fillColor=none;align=left;verticalAlign=top;spacingLeft=4;spacingRight=4;overflow=hidden;rotatable=0;points=[[0,0.5],[1,0.5]];portConstraint=eastwest;whiteSpace=wrap;html=1;" vertex="1" parent="OpDvex93K6ZjIfhI5G0n-1">
          <mxGeometry y="130" width="208" height="26" as="geometry" />
        </mxCell>
        <mxCell id="OpDvex93K6ZjIfhI5G0n-3" value="" style="line;strokeWidth=1;fillColor=none;align=left;verticalAlign=middle;spacingTop=-1;spacingLeft=3;spacingRight=3;rotatable=0;labelPosition=right;points=[];portConstraint=eastwest;strokeColor=inherit;" vertex="1" parent="OpDvex93K6ZjIfhI5G0n-1">
          <mxGeometry y="156" width="208" height="8" as="geometry" />
        </mxCell>
        <mxCell id="OpDvex93K6ZjIfhI5G0n-4" value="+ query_position(float): Eigen::Vector" style="text;strokeColor=none;fillColor=none;align=left;verticalAlign=top;spacingLeft=4;spacingRight=4;overflow=hidden;rotatable=0;points=[[0,0.5],[1,0.5]];portConstraint=eastwest;whiteSpace=wrap;html=1;" vertex="1" parent="OpDvex93K6ZjIfhI5G0n-1">
          <mxGeometry y="164" width="208" height="26" as="geometry" />
        </mxCell>
        <mxCell id="OpDvex93K6ZjIfhI5G0n-10" value="+ query_state(float): State" style="text;strokeColor=none;fillColor=none;align=left;verticalAlign=top;spacingLeft=4;spacingRight=4;overflow=hidden;rotatable=0;points=[[0,0.5],[1,0.5]];portConstraint=eastwest;whiteSpace=wrap;html=1;" vertex="1" parent="OpDvex93K6ZjIfhI5G0n-1">
          <mxGeometry y="190" width="208" height="26" as="geometry" />
        </mxCell>
        <mxCell id="OpDvex93K6ZjIfhI5G0n-9" value="+ end_time(): float" style="text;strokeColor=none;fillColor=none;align=left;verticalAlign=top;spacingLeft=4;spacingRight=4;overflow=hidden;rotatable=0;points=[[0,0.5],[1,0.5]];portConstraint=eastwest;whiteSpace=wrap;html=1;" vertex="1" parent="OpDvex93K6ZjIfhI5G0n-1">
          <mxGeometry y="216" width="208" height="26" as="geometry" />
        </mxCell>
        <mxCell id="OpDvex93K6ZjIfhI5G0n-11" value="State" style="swimlane;fontStyle=0;childLayout=stackLayout;horizontal=1;startSize=26;fillColor=none;horizontalStack=0;resizeParent=1;resizeParentMax=0;resizeLast=0;collapsible=1;marginBottom=0;whiteSpace=wrap;html=1;" vertex="1" parent="1">
          <mxGeometry x="8" y="161" width="171" height="104" as="geometry" />
        </mxCell>
        <mxCell id="OpDvex93K6ZjIfhI5G0n-12" value="+ position: Eigen::Vector" style="text;strokeColor=none;fillColor=none;align=left;verticalAlign=top;spacingLeft=4;spacingRight=4;overflow=hidden;rotatable=0;points=[[0,0.5],[1,0.5]];portConstraint=eastwest;whiteSpace=wrap;html=1;" vertex="1" parent="OpDvex93K6ZjIfhI5G0n-11">
          <mxGeometry y="26" width="171" height="26" as="geometry" />
        </mxCell>
        <mxCell id="OpDvex93K6ZjIfhI5G0n-13" value="+ velocity: Eigen::Vector" style="text;strokeColor=none;fillColor=none;align=left;verticalAlign=top;spacingLeft=4;spacingRight=4;overflow=hidden;rotatable=0;points=[[0,0.5],[1,0.5]];portConstraint=eastwest;whiteSpace=wrap;html=1;" vertex="1" parent="OpDvex93K6ZjIfhI5G0n-11">
          <mxGeometry y="52" width="171" height="26" as="geometry" />
        </mxCell>
        <mxCell id="OpDvex93K6ZjIfhI5G0n-14" value="+ acceleration: Eigen::Vector" style="text;strokeColor=none;fillColor=none;align=left;verticalAlign=top;spacingLeft=4;spacingRight=4;overflow=hidden;rotatable=0;points=[[0,0.5],[1,0.5]];portConstraint=eastwest;whiteSpace=wrap;html=1;" vertex="1" parent="OpDvex93K6ZjIfhI5G0n-11">
          <mxGeometry y="78" width="171" height="26" as="geometry" />
        </mxCell>
        <mxCell id="OpDvex93K6ZjIfhI5G0n-15" style="edgeStyle=orthogonalEdgeStyle;rounded=0;orthogonalLoop=1;jettySize=auto;html=1;" edge="1" parent="1" source="OpDvex93K6ZjIfhI5G0n-1" target="OpDvex93K6ZjIfhI5G0n-11">
          <mxGeometry relative="1" as="geometry" />
        </mxCell>
        <mxCell id="OpDvex93K6ZjIfhI5G0n-32" style="edgeStyle=orthogonalEdgeStyle;rounded=0;orthogonalLoop=1;jettySize=auto;html=1;endArrow=block;endFill=0;" edge="1" parent="1" source="OpDvex93K6ZjIfhI5G0n-16" target="OpDvex93K6ZjIfhI5G0n-1">
          <mxGeometry relative="1" as="geometry" />
        </mxCell>
        <mxCell id="OpDvex93K6ZjIfhI5G0n-16" value="Polynomial" style="swimlane;fontStyle=1;align=center;verticalAlign=top;childLayout=stackLayout;horizontal=1;startSize=26;horizontalStack=0;resizeParent=1;resizeParentMax=0;resizeLast=0;collapsible=1;marginBottom=0;whiteSpace=wrap;html=1;" vertex="1" parent="1">
          <mxGeometry x="527" y="43" width="168" height="112" as="geometry" />
        </mxCell>
        <mxCell id="OpDvex93K6ZjIfhI5G0n-17" value="- _order: int" style="text;strokeColor=none;fillColor=none;align=left;verticalAlign=top;spacingLeft=4;spacingRight=4;overflow=hidden;rotatable=0;points=[[0,0.5],[1,0.5]];portConstraint=eastwest;whiteSpace=wrap;html=1;" vertex="1" parent="OpDvex93K6ZjIfhI5G0n-16">
          <mxGeometry y="26" width="168" height="26" as="geometry" />
        </mxCell>
        <mxCell id="OpDvex93K6ZjIfhI5G0n-26" value="- _coefficients: Eigen::Matrix" style="text;strokeColor=none;fillColor=none;align=left;verticalAlign=top;spacingLeft=4;spacingRight=4;overflow=hidden;rotatable=0;points=[[0,0.5],[1,0.5]];portConstraint=eastwest;whiteSpace=wrap;html=1;" vertex="1" parent="OpDvex93K6ZjIfhI5G0n-16">
          <mxGeometry y="52" width="168" height="26" as="geometry" />
        </mxCell>
        <mxCell id="OpDvex93K6ZjIfhI5G0n-22" value="" style="line;strokeWidth=1;fillColor=none;align=left;verticalAlign=middle;spacingTop=-1;spacingLeft=3;spacingRight=3;rotatable=0;labelPosition=right;points=[];portConstraint=eastwest;strokeColor=inherit;" vertex="1" parent="OpDvex93K6ZjIfhI5G0n-16">
          <mxGeometry y="78" width="168" height="8" as="geometry" />
        </mxCell>
        <mxCell id="OpDvex93K6ZjIfhI5G0n-24" value="+ query_state(float): State" style="text;strokeColor=none;fillColor=none;align=left;verticalAlign=top;spacingLeft=4;spacingRight=4;overflow=hidden;rotatable=0;points=[[0,0.5],[1,0.5]];portConstraint=eastwest;whiteSpace=wrap;html=1;" vertex="1" parent="OpDvex93K6ZjIfhI5G0n-16">
          <mxGeometry y="86" width="168" height="26" as="geometry" />
        </mxCell>
        <mxCell id="OpDvex93K6ZjIfhI5G0n-38" style="edgeStyle=orthogonalEdgeStyle;rounded=0;orthogonalLoop=1;jettySize=auto;html=1;endArrow=block;endFill=0;" edge="1" parent="1" source="OpDvex93K6ZjIfhI5G0n-27" target="OpDvex93K6ZjIfhI5G0n-1">
          <mxGeometry relative="1" as="geometry" />
        </mxCell>
        <mxCell id="OpDvex93K6ZjIfhI5G0n-27" value="TrapezoidalVelocity" style="swimlane;fontStyle=1;align=center;verticalAlign=top;childLayout=stackLayout;horizontal=1;startSize=26;horizontalStack=0;resizeParent=1;resizeParentMax=0;resizeLast=0;collapsible=1;marginBottom=0;whiteSpace=wrap;html=1;" vertex="1" parent="1">
          <mxGeometry x="527" y="217" width="155" height="242" as="geometry" />
        </mxCell>
        <mxCell id="OpDvex93K6ZjIfhI5G0n-28" value="- _coastDistance: float" style="text;strokeColor=none;fillColor=none;align=left;verticalAlign=top;spacingLeft=4;spacingRight=4;overflow=hidden;rotatable=0;points=[[0,0.5],[1,0.5]];portConstraint=eastwest;whiteSpace=wrap;html=1;" vertex="1" parent="OpDvex93K6ZjIfhI5G0n-27">
          <mxGeometry y="26" width="155" height="26" as="geometry" />
        </mxCell>
        <mxCell id="OpDvex93K6ZjIfhI5G0n-29" value="- _coastTime: float" style="text;strokeColor=none;fillColor=none;align=left;verticalAlign=top;spacingLeft=4;spacingRight=4;overflow=hidden;rotatable=0;points=[[0,0.5],[1,0.5]];portConstraint=eastwest;whiteSpace=wrap;html=1;" vertex="1" parent="OpDvex93K6ZjIfhI5G0n-27">
          <mxGeometry y="52" width="155" height="26" as="geometry" />
        </mxCell>
        <mxCell id="OpDvex93K6ZjIfhI5G0n-33" value="- _normalisedVel: float" style="text;strokeColor=none;fillColor=none;align=left;verticalAlign=top;spacingLeft=4;spacingRight=4;overflow=hidden;rotatable=0;points=[[0,0.5],[1,0.5]];portConstraint=eastwest;whiteSpace=wrap;html=1;" vertex="1" parent="OpDvex93K6ZjIfhI5G0n-27">
          <mxGeometry y="78" width="155" height="26" as="geometry" />
        </mxCell>
        <mxCell id="OpDvex93K6ZjIfhI5G0n-34" value="- _normalisedAccel: float" style="text;strokeColor=none;fillColor=none;align=left;verticalAlign=top;spacingLeft=4;spacingRight=4;overflow=hidden;rotatable=0;points=[[0,0.5],[1,0.5]];portConstraint=eastwest;whiteSpace=wrap;html=1;" vertex="1" parent="OpDvex93K6ZjIfhI5G0n-27">
          <mxGeometry y="104" width="155" height="26" as="geometry" />
        </mxCell>
        <mxCell id="OpDvex93K6ZjIfhI5G0n-35" value="- _rampDistance: float" style="text;strokeColor=none;fillColor=none;align=left;verticalAlign=top;spacingLeft=4;spacingRight=4;overflow=hidden;rotatable=0;points=[[0,0.5],[1,0.5]];portConstraint=eastwest;whiteSpace=wrap;html=1;" vertex="1" parent="OpDvex93K6ZjIfhI5G0n-27">
          <mxGeometry y="130" width="155" height="26" as="geometry" />
        </mxCell>
        <mxCell id="OpDvex93K6ZjIfhI5G0n-36" value="- _rampTime: float" style="text;strokeColor=none;fillColor=none;align=left;verticalAlign=top;spacingLeft=4;spacingRight=4;overflow=hidden;rotatable=0;points=[[0,0.5],[1,0.5]];portConstraint=eastwest;whiteSpace=wrap;html=1;" vertex="1" parent="OpDvex93K6ZjIfhI5G0n-27">
          <mxGeometry y="156" width="155" height="26" as="geometry" />
        </mxCell>
        <mxCell id="OpDvex93K6ZjIfhI5G0n-30" value="" style="line;strokeWidth=1;fillColor=none;align=left;verticalAlign=middle;spacingTop=-1;spacingLeft=3;spacingRight=3;rotatable=0;labelPosition=right;points=[];portConstraint=eastwest;strokeColor=inherit;" vertex="1" parent="OpDvex93K6ZjIfhI5G0n-27">
          <mxGeometry y="182" width="155" height="8" as="geometry" />
        </mxCell>
        <mxCell id="OpDvex93K6ZjIfhI5G0n-37" value="+ query_state(float): State" style="text;strokeColor=none;fillColor=none;align=left;verticalAlign=top;spacingLeft=4;spacingRight=4;overflow=hidden;rotatable=0;points=[[0,0.5],[1,0.5]];portConstraint=eastwest;whiteSpace=wrap;html=1;" vertex="1" parent="OpDvex93K6ZjIfhI5G0n-27">
          <mxGeometry y="190" width="155" height="26" as="geometry" />
        </mxCell>
        <mxCell id="OpDvex93K6ZjIfhI5G0n-31" value="+ duration(): float" style="text;strokeColor=none;fillColor=none;align=left;verticalAlign=top;spacingLeft=4;spacingRight=4;overflow=hidden;rotatable=0;points=[[0,0.5],[1,0.5]];portConstraint=eastwest;whiteSpace=wrap;html=1;" vertex="1" parent="OpDvex93K6ZjIfhI5G0n-27">
          <mxGeometry y="216" width="155" height="26" as="geometry" />
        </mxCell>
      </root>
    </mxGraphModel>
  </diagram>
</mxfile>
